<?xml version="1.0" standalone="no"?>
<!DOCTYPE svg PUBLIC "-//W3C//DTD SVG 20010904//EN"
 "http://www.w3.org/TR/2001/REC-SVG-20010904/DTD/svg10.dtd">
<svg version="1.0" xmlns="http://www.w3.org/2000/svg"
 width="4675.000000pt" height="4675.000000pt" viewBox="0 0 4675.000000 4675.000000"
 preserveAspectRatio="xMidYMid meet">
<metadata>
Created by potrace 1.16, written by Peter Selinger 2001-2019
</metadata>
<g transform="translate(0.000000,4675.000000) scale(0.100000,-0.100000)"
fill="#000000" stroke="none">
<path d="M11135 34209 c-535 -78 -969 -495 -1076 -1034 -12 -59 -14 -1436 -14
-9060 0 -8560 1 -8994 18 -9072 54 -251 163 -457 339 -639 183 -189 389 -303
668 -371 72 -17 557 -18 12240 -21 8700 -2 12192 0 12262 8 292 33 545 156
759 369 188 188 300 393 357 655 16 77 17 429 17 6366 0 5986 -1 6290 -18
6400 -88 569 -330 1062 -715 1462 -284 294 -607 510 -976 653 -206 79 -354
110 -736 151 -129 14 -921 17 -7314 24 -3943 5 -7172 13 -7176 17 -4 4 -357
879 -785 1943 -428 1064 -798 1986 -823 2048 l-46 112 -3460 -1 c-1905 -1
-3488 -5 -3521 -10z m25295 -17799 l0 -480 -13055 0 -13055 0 0 480 0 480
13055 0 13055 0 0 -480z"/>
</g>
</svg>
